# Spyderweb mesh generated with Ragusa's Python code
# number of polygons: 236
# number of vertices: 273
# number of material attributes: 3
mtllib untitled.mtl 
o main_object 
v 0.05269536465262567 0.0 0.0
v 0.03726124968296951 0.03726124968296951 0.0
v 0.0 0.05269536465262567 0.0
v 0.10539072930525759 0.0 0.0
v 0.07452249936594345 0.07452249936594343 0.0
v 0.0 0.10539072930525759 0.0
v 0.15195022874349157 0.0 0.0
v 0.14038370629652008 0.05814883508421988 0.0
v 0.10744503714736994 0.10744503714736993 0.0
v 0.058148835084219884 0.14038370629652008 0.0
v 0.0 0.15195022874349157 0.0
v 0.20260030499259388 0.0 0.0
v 0.18717827506320175 0.07753178011277986 0.0
v 0.14326004953072588 0.14326004953072585 0.0
v 0.07753178011277988 0.18717827506320175 0.0
v 0.0 0.20260030499259388 0.0
v 0.2532503816134135 0.0 0.0
v 0.23397284417330544 0.09691472528358991 0.0
v 0.17907506217692565 0.17907506217692562 0.0
v 0.09691472528358992 0.23397284417330544 0.0
v 0.0 0.2532503816134135 0.0
v 0.30390046017315775 0.0 0.0
v 0.2807674150747419 0.11629767119639428 0.0
v 0.21489007619415218 0.21489007619415215 0.0
v 0.1162976711963943 0.2807674150747419 0.0
v 0.0 0.30390046017315775 0.0
v 0.35455053723901114 0.0 0.0
v 0.32756198459600316 0.13568061653751137 0.0
v 0.25070508915503836 0.2507050891550383 0.0
v 0.13568061653751137 0.32756198459600316 0.0
v 0.0 0.35455053723901114 0.0
v 0.40520061505181015 0.0 0.0
v 0.37435655480735225 0.15506356216447217 0.0
v 0.28652010264409483 0.2865201026440948 0.0
v 0.1550635621644722 0.37435655480735225 0.0
v 0.0 0.40520061505181015 0.0
v 0.4153306306143697 0.0 0.0
v 0.3837154688496218 0.15894015128986425 0.0
v 0.29368310534190595 0.2936831053419059 0.0
v 0.15894015128986425 0.3837154688496218 0.0
v 0.0 0.4153306306143697 0.0
v 0.4234346430644176 0.0 0.0
v 0.39120260008343766 0.16204142259017798 0.0
v 0.299413507500155 0.29941350750015494 0.0
v 0.162041422590178 0.39120260008343766 0.0
v 0.0 0.4234346430644176 0.0
v 0.48117573777907946 0.0 0.0
v 0.44454841567510944 0.18413798290410252 0.0
v 0.34024262712602715 0.3402426271260271 0.0
v 0.18413798290410255 0.44454841567510944 0.0
v 0.0 0.48117573777907946 0.0
v 0.539 0.0 0.0
v 0.5214593882136184 0.13972462195746632 0.0
v 0.5123578363789504 0.2122255646162964 0.0
v 0.4887010005572022 0.28215165422494004 0.0
v 0.43648737341529165 0.43648737341529154 0.0
v 0.2821516542249403 0.48870100055720234 0.0
v 0.2122255646162964 0.5123578363789504 0.0
v 0.1397246219574665 0.5214593882136184 0.0
v 0.0 0.539 0.0
v 0.5820000000000001 0.0 0.0
v 0.565498878573878 0.15152496783457614 0.0
v 0.5568802457287246 0.2306673503984996 0.0
v 0.5349233086282307 0.30883811623231416 0.0
v 0.48534523779156075 0.48534523779156064 0.0
v 0.3088381162323143 0.5349233086282306 0.0
v 0.2306673503984996 0.5568802457287246 0.0
v 0.1515249678345763 0.565498878573878 0.0
v 0.0 0.5820000000000001 0.0
v 0.6060000000000001 0.0 0.0
v 0.6060000000000001 0.16237721061326038 0.0
v 0.6060000000000001 0.34987426312891323 0.0
v 0.6060000000000001 0.6060000000000001 0.0
v 0.34987426312891334 0.6060000000000001 0.0
v 0.16237721061326055 0.6060000000000001 0.0
v 0.0 0.6060000000000001 0.0
v 0.63 0.0 0.0
v 0.63 0.16880799123160728 0.0
v 0.63 0.36373066958946415 0.0
v 0.63 0.63 0.0
v 0.3637306695894644 0.63 0.0
v 0.16880799123160745 0.63 0.0
v 0.0 0.63 0.0
v 0.0 0.0 0.0
v -0.03726124968296951 0.03726124968296951 0.0
v -0.05269536465262567 0.0 0.0
v -0.07452249936594345 0.07452249936594343 0.0
v -0.10539072930525759 0.0 0.0
v -0.10744503714736994 0.10744503714736993 0.0
v -0.14038370629652008 0.05814883508421988 0.0
v -0.15195022874349157 0.0 0.0
v -0.058148835084219884 0.14038370629652008 0.0
v -0.18717827506320175 0.07753178011277986 0.0
v -0.20260030499259388 0.0 0.0
v -0.14326004953072588 0.14326004953072585 0.0
v -0.07753178011277988 0.18717827506320175 0.0
v -0.23397284417330544 0.09691472528358991 0.0
v -0.2532503816134135 0.0 0.0
v -0.17907506217692565 0.17907506217692562 0.0
v -0.09691472528358992 0.23397284417330544 0.0
v -0.2807674150747419 0.11629767119639428 0.0
v -0.30390046017315775 0.0 0.0
v -0.21489007619415218 0.21489007619415215 0.0
v -0.1162976711963943 0.2807674150747419 0.0
v -0.32756198459600316 0.13568061653751137 0.0
v -0.35455053723901114 0.0 0.0
v -0.25070508915503836 0.2507050891550383 0.0
v -0.13568061653751137 0.32756198459600316 0.0
v -0.37435655480735225 0.15506356216447217 0.0
v -0.40520061505181015 0.0 0.0
v -0.28652010264409483 0.2865201026440948 0.0
v -0.1550635621644722 0.37435655480735225 0.0
v -0.3837154688496218 0.15894015128986425 0.0
v -0.4153306306143697 0.0 0.0
v -0.29368310534190595 0.2936831053419059 0.0
v -0.15894015128986425 0.3837154688496218 0.0
v -0.39120260008343766 0.16204142259017798 0.0
v -0.4234346430644176 0.0 0.0
v -0.299413507500155 0.29941350750015494 0.0
v -0.162041422590178 0.39120260008343766 0.0
v -0.44454841567510944 0.18413798290410252 0.0
v -0.48117573777907946 0.0 0.0
v -0.34024262712602715 0.3402426271260271 0.0
v -0.18413798290410255 0.44454841567510944 0.0
v -0.5123578363789504 0.2122255646162964 0.0
v -0.5214593882136184 0.13972462195746632 0.0
v -0.539 0.0 0.0
v -0.43648737341529165 0.43648737341529154 0.0
v -0.4887010005572022 0.28215165422494004 0.0
v -0.2122255646162964 0.5123578363789504 0.0
v -0.2821516542249403 0.48870100055720234 0.0
v -0.1397246219574665 0.5214593882136184 0.0
v -0.565498878573878 0.15152496783457614 0.0
v -0.5820000000000001 0.0 0.0
v -0.5349233086282307 0.30883811623231416 0.0
v -0.5568802457287246 0.2306673503984996 0.0
v -0.48534523779156075 0.48534523779156064 0.0
v -0.3088381162323143 0.5349233086282306 0.0
v -0.1515249678345763 0.565498878573878 0.0
v -0.2306673503984996 0.5568802457287246 0.0
v -0.6060000000000001 0.16237721061326038 0.0
v -0.6060000000000001 0.0 0.0
v -0.6060000000000001 0.34987426312891323 0.0
v -0.6060000000000001 0.6060000000000001 0.0
v -0.34987426312891334 0.6060000000000001 0.0
v -0.16237721061326055 0.6060000000000001 0.0
v -0.63 0.16880799123160728 0.0
v -0.63 0.0 0.0
v -0.63 0.36373066958946415 0.0
v -0.63 0.63 0.0
v -0.3637306695894644 0.63 0.0
v -0.16880799123160745 0.63 0.0
v 0.0 -0.05269536465262567 0.0
v 0.03726124968296951 -0.03726124968296951 0.0
v 0.07452249936594345 -0.07452249936594343 0.0
v 0.0 -0.10539072930525759 0.0
v 0.10744503714736994 -0.10744503714736993 0.0
v 0.14038370629652008 -0.05814883508421988 0.0
v 0.0 -0.15195022874349157 0.0
v 0.058148835084219884 -0.14038370629652008 0.0
v 0.18717827506320175 -0.07753178011277986 0.0
v 0.14326004953072588 -0.14326004953072585 0.0
v 0.07753178011277988 -0.18717827506320175 0.0
v 0.0 -0.20260030499259388 0.0
v 0.23397284417330544 -0.09691472528358991 0.0
v 0.17907506217692565 -0.17907506217692562 0.0
v 0.09691472528358992 -0.23397284417330544 0.0
v 0.0 -0.2532503816134135 0.0
v 0.2807674150747419 -0.11629767119639428 0.0
v 0.21489007619415218 -0.21489007619415215 0.0
v 0.1162976711963943 -0.2807674150747419 0.0
v 0.0 -0.30390046017315775 0.0
v 0.32756198459600316 -0.13568061653751137 0.0
v 0.25070508915503836 -0.2507050891550383 0.0
v 0.13568061653751137 -0.32756198459600316 0.0
v 0.0 -0.35455053723901114 0.0
v 0.37435655480735225 -0.15506356216447217 0.0
v 0.28652010264409483 -0.2865201026440948 0.0
v 0.1550635621644722 -0.37435655480735225 0.0
v 0.0 -0.40520061505181015 0.0
v 0.3837154688496218 -0.15894015128986425 0.0
v 0.29368310534190595 -0.2936831053419059 0.0
v 0.15894015128986425 -0.3837154688496218 0.0
v 0.0 -0.4153306306143697 0.0
v 0.39120260008343766 -0.16204142259017798 0.0
v 0.299413507500155 -0.29941350750015494 0.0
v 0.162041422590178 -0.39120260008343766 0.0
v 0.0 -0.4234346430644176 0.0
v 0.44454841567510944 -0.18413798290410252 0.0
v 0.34024262712602715 -0.3402426271260271 0.0
v 0.18413798290410255 -0.44454841567510944 0.0
v 0.0 -0.48117573777907946 0.0
v 0.5123578363789504 -0.2122255646162964 0.0
v 0.5214593882136184 -0.13972462195746632 0.0
v 0.43648737341529165 -0.43648737341529154 0.0
v 0.4887010005572022 -0.28215165422494004 0.0
v 0.2122255646162964 -0.5123578363789504 0.0
v 0.2821516542249403 -0.48870100055720234 0.0
v 0.0 -0.539 0.0
v 0.1397246219574665 -0.5214593882136184 0.0
v 0.565498878573878 -0.15152496783457614 0.0
v 0.5349233086282307 -0.30883811623231416 0.0
v 0.5568802457287246 -0.2306673503984996 0.0
v 0.48534523779156075 -0.48534523779156064 0.0
v 0.3088381162323143 -0.5349233086282306 0.0
v 0.1515249678345763 -0.565498878573878 0.0
v 0.2306673503984996 -0.5568802457287246 0.0
v 0.0 -0.5820000000000001 0.0
v 0.6060000000000001 -0.16237721061326038 0.0
v 0.6060000000000001 -0.34987426312891323 0.0
v 0.6060000000000001 -0.6060000000000001 0.0
v 0.34987426312891334 -0.6060000000000001 0.0
v 0.16237721061326055 -0.6060000000000001 0.0
v 0.0 -0.6060000000000001 0.0
v 0.63 -0.16880799123160728 0.0
v 0.63 -0.36373066958946415 0.0
v 0.63 -0.63 0.0
v 0.3637306695894644 -0.63 0.0
v 0.16880799123160745 -0.63 0.0
v 0.0 -0.63 0.0
v -0.03726124968296951 -0.03726124968296951 0.0
v -0.07452249936594345 -0.07452249936594343 0.0
v -0.14038370629652008 -0.05814883508421988 0.0
v -0.10744503714736994 -0.10744503714736993 0.0
v -0.058148835084219884 -0.14038370629652008 0.0
v -0.18717827506320175 -0.07753178011277986 0.0
v -0.14326004953072588 -0.14326004953072585 0.0
v -0.07753178011277988 -0.18717827506320175 0.0
v -0.23397284417330544 -0.09691472528358991 0.0
v -0.17907506217692565 -0.17907506217692562 0.0
v -0.09691472528358992 -0.23397284417330544 0.0
v -0.2807674150747419 -0.11629767119639428 0.0
v -0.21489007619415218 -0.21489007619415215 0.0
v -0.1162976711963943 -0.2807674150747419 0.0
v -0.32756198459600316 -0.13568061653751137 0.0
v -0.25070508915503836 -0.2507050891550383 0.0
v -0.13568061653751137 -0.32756198459600316 0.0
v -0.37435655480735225 -0.15506356216447217 0.0
v -0.28652010264409483 -0.2865201026440948 0.0
v -0.1550635621644722 -0.37435655480735225 0.0
v -0.3837154688496218 -0.15894015128986425 0.0
v -0.29368310534190595 -0.2936831053419059 0.0
v -0.15894015128986425 -0.3837154688496218 0.0
v -0.39120260008343766 -0.16204142259017798 0.0
v -0.299413507500155 -0.29941350750015494 0.0
v -0.162041422590178 -0.39120260008343766 0.0
v -0.44454841567510944 -0.18413798290410252 0.0
v -0.34024262712602715 -0.3402426271260271 0.0
v -0.18413798290410255 -0.44454841567510944 0.0
v -0.5214593882136184 -0.13972462195746632 0.0
v -0.5123578363789504 -0.2122255646162964 0.0
v -0.4887010005572022 -0.28215165422494004 0.0
v -0.43648737341529165 -0.43648737341529154 0.0
v -0.2821516542249403 -0.48870100055720234 0.0
v -0.2122255646162964 -0.5123578363789504 0.0
v -0.1397246219574665 -0.5214593882136184 0.0
v -0.565498878573878 -0.15152496783457614 0.0
v -0.5568802457287246 -0.2306673503984996 0.0
v -0.5349233086282307 -0.30883811623231416 0.0
v -0.48534523779156075 -0.48534523779156064 0.0
v -0.3088381162323143 -0.5349233086282306 0.0
v -0.2306673503984996 -0.5568802457287246 0.0
v -0.1515249678345763 -0.565498878573878 0.0
v -0.6060000000000001 -0.16237721061326038 0.0
v -0.6060000000000001 -0.34987426312891323 0.0
v -0.6060000000000001 -0.6060000000000001 0.0
v -0.34987426312891334 -0.6060000000000001 0.0
v -0.16237721061326055 -0.6060000000000001 0.0
v -0.63 -0.16880799123160728 0.0
v -0.63 -0.36373066958946415 0.0
v -0.63 -0.63 0.0
v -0.3637306695894644 -0.63 0.0
v -0.16880799123160745 -0.63 0.0
vn 0.0000 0.0000 1.0000 
s 1 
g matclad 
usemtl Mat_clad 
f 42//1 47//1 48//1 43//1 
f 43//1 48//1 49//1 44//1 
f 44//1 49//1 50//1 45//1 
f 45//1 50//1 51//1 46//1 
f 118//1 117//1 121//1 122//1 
f 117//1 119//1 123//1 121//1 
f 119//1 120//1 124//1 123//1 
f 120//1 46//1 51//1 124//1 
f 42//1 185//1 189//1 47//1 
f 185//1 186//1 190//1 189//1 
f 186//1 187//1 191//1 190//1 
f 187//1 188//1 192//1 191//1 
f 118//1 122//1 247//1 244//1 
f 244//1 247//1 248//1 245//1 
f 245//1 248//1 249//1 246//1 
f 246//1 249//1 192//1 188//1 
g matfuel 
usemtl Mat_fuel 
f 3//1 84//1 1//1 2//1 
f 1//1 4//1 5//1 2//1 
f 2//1 5//1 6//1 3//1 
f 4//1 7//1 8//1 9//1 5//1 
f 5//1 9//1 10//1 11//1 6//1 
f 7//1 12//1 13//1 8//1 
f 8//1 13//1 14//1 9//1 
f 9//1 14//1 15//1 10//1 
f 10//1 15//1 16//1 11//1 
f 12//1 17//1 18//1 13//1 
f 13//1 18//1 19//1 14//1 
f 14//1 19//1 20//1 15//1 
f 15//1 20//1 21//1 16//1 
f 17//1 22//1 23//1 18//1 
f 18//1 23//1 24//1 19//1 
f 19//1 24//1 25//1 20//1 
f 20//1 25//1 26//1 21//1 
f 22//1 27//1 28//1 23//1 
f 23//1 28//1 29//1 24//1 
f 24//1 29//1 30//1 25//1 
f 25//1 30//1 31//1 26//1 
f 27//1 32//1 33//1 28//1 
f 28//1 33//1 34//1 29//1 
f 29//1 34//1 35//1 30//1 
f 30//1 35//1 36//1 31//1 
f 32//1 37//1 38//1 33//1 
f 33//1 38//1 39//1 34//1 
f 34//1 39//1 40//1 35//1 
f 35//1 40//1 41//1 36//1 
f 37//1 42//1 43//1 38//1 
f 38//1 43//1 44//1 39//1 
f 39//1 44//1 45//1 40//1 
f 40//1 45//1 46//1 41//1 
f 3//1 85//1 86//1 84//1 
f 86//1 85//1 87//1 88//1 
f 85//1 3//1 6//1 87//1 
f 88//1 87//1 89//1 90//1 91//1 
f 87//1 6//1 11//1 92//1 89//1 
f 91//1 90//1 93//1 94//1 
f 90//1 89//1 95//1 93//1 
f 89//1 92//1 96//1 95//1 
f 92//1 11//1 16//1 96//1 
f 94//1 93//1 97//1 98//1 
f 93//1 95//1 99//1 97//1 
f 95//1 96//1 100//1 99//1 
f 96//1 16//1 21//1 100//1 
f 98//1 97//1 101//1 102//1 
f 97//1 99//1 103//1 101//1 
f 99//1 100//1 104//1 103//1 
f 100//1 21//1 26//1 104//1 
f 102//1 101//1 105//1 106//1 
f 101//1 103//1 107//1 105//1 
f 103//1 104//1 108//1 107//1 
f 104//1 26//1 31//1 108//1 
f 106//1 105//1 109//1 110//1 
f 105//1 107//1 111//1 109//1 
f 107//1 108//1 112//1 111//1 
f 108//1 31//1 36//1 112//1 
f 110//1 109//1 113//1 114//1 
f 109//1 111//1 115//1 113//1 
f 111//1 112//1 116//1 115//1 
f 112//1 36//1 41//1 116//1 
f 114//1 113//1 117//1 118//1 
f 113//1 115//1 119//1 117//1 
f 115//1 116//1 120//1 119//1 
f 116//1 41//1 46//1 120//1 
f 153//1 154//1 1//1 84//1 
f 1//1 154//1 155//1 4//1 
f 154//1 153//1 156//1 155//1 
f 4//1 155//1 157//1 158//1 7//1 
f 155//1 156//1 159//1 160//1 157//1 
f 7//1 158//1 161//1 12//1 
f 158//1 157//1 162//1 161//1 
f 157//1 160//1 163//1 162//1 
f 160//1 159//1 164//1 163//1 
f 12//1 161//1 165//1 17//1 
f 161//1 162//1 166//1 165//1 
f 162//1 163//1 167//1 166//1 
f 163//1 164//1 168//1 167//1 
f 17//1 165//1 169//1 22//1 
f 165//1 166//1 170//1 169//1 
f 166//1 167//1 171//1 170//1 
f 167//1 168//1 172//1 171//1 
f 22//1 169//1 173//1 27//1 
f 169//1 170//1 174//1 173//1 
f 170//1 171//1 175//1 174//1 
f 171//1 172//1 176//1 175//1 
f 27//1 173//1 177//1 32//1 
f 173//1 174//1 178//1 177//1 
f 174//1 175//1 179//1 178//1 
f 175//1 176//1 180//1 179//1 
f 32//1 177//1 181//1 37//1 
f 177//1 178//1 182//1 181//1 
f 178//1 179//1 183//1 182//1 
f 179//1 180//1 184//1 183//1 
f 37//1 181//1 185//1 42//1 
f 181//1 182//1 186//1 185//1 
f 182//1 183//1 187//1 186//1 
f 183//1 184//1 188//1 187//1 
f 153//1 84//1 86//1 221//1 
f 86//1 88//1 222//1 221//1 
f 221//1 222//1 156//1 153//1 
f 88//1 91//1 223//1 224//1 222//1 
f 222//1 224//1 225//1 159//1 156//1 
f 91//1 94//1 226//1 223//1 
f 223//1 226//1 227//1 224//1 
f 224//1 227//1 228//1 225//1 
f 225//1 228//1 164//1 159//1 
f 94//1 98//1 229//1 226//1 
f 226//1 229//1 230//1 227//1 
f 227//1 230//1 231//1 228//1 
f 228//1 231//1 168//1 164//1 
f 98//1 102//1 232//1 229//1 
f 229//1 232//1 233//1 230//1 
f 230//1 233//1 234//1 231//1 
f 231//1 234//1 172//1 168//1 
f 102//1 106//1 235//1 232//1 
f 232//1 235//1 236//1 233//1 
f 233//1 236//1 237//1 234//1 
f 234//1 237//1 176//1 172//1 
f 106//1 110//1 238//1 235//1 
f 235//1 238//1 239//1 236//1 
f 236//1 239//1 240//1 237//1 
f 237//1 240//1 180//1 176//1 
f 110//1 114//1 241//1 238//1 
f 238//1 241//1 242//1 239//1 
f 239//1 242//1 243//1 240//1 
f 240//1 243//1 184//1 180//1 
f 114//1 118//1 244//1 241//1 
f 241//1 244//1 245//1 242//1 
f 242//1 245//1 246//1 243//1 
f 243//1 246//1 188//1 184//1 
g matmoderator 
usemtl Mat_moderator 
f 47//1 52//1 53//1 54//1 48//1 
f 48//1 54//1 55//1 56//1 49//1 
f 49//1 56//1 57//1 58//1 50//1 
f 50//1 58//1 59//1 60//1 51//1 
f 52//1 61//1 62//1 53//1 
f 53//1 62//1 63//1 64//1 55//1 54//1 
f 55//1 64//1 65//1 56//1 
f 56//1 65//1 66//1 57//1 
f 57//1 66//1 67//1 68//1 59//1 58//1 
f 59//1 68//1 69//1 60//1 
f 61//1 70//1 71//1 62//1 
f 62//1 71//1 72//1 64//1 63//1 
f 64//1 72//1 73//1 65//1 
f 65//1 73//1 74//1 66//1 
f 66//1 74//1 75//1 68//1 67//1 
f 68//1 75//1 76//1 69//1 
f 70//1 77//1 78//1 71//1 
f 71//1 78//1 79//1 72//1 
f 72//1 79//1 80//1 73//1 
f 73//1 80//1 81//1 74//1 
f 74//1 81//1 82//1 75//1 
f 75//1 82//1 83//1 76//1 
f 122//1 121//1 125//1 126//1 127//1 
f 121//1 123//1 128//1 129//1 125//1 
f 123//1 124//1 130//1 131//1 128//1 
f 124//1 51//1 60//1 132//1 130//1 
f 127//1 126//1 133//1 134//1 
f 126//1 125//1 129//1 135//1 136//1 133//1 
f 129//1 128//1 137//1 135//1 
f 128//1 131//1 138//1 137//1 
f 131//1 130//1 132//1 139//1 140//1 138//1 
f 132//1 60//1 69//1 139//1 
f 134//1 133//1 141//1 142//1 
f 133//1 136//1 135//1 143//1 141//1 
f 135//1 137//1 144//1 143//1 
f 137//1 138//1 145//1 144//1 
f 138//1 140//1 139//1 146//1 145//1 
f 139//1 69//1 76//1 146//1 
f 142//1 141//1 147//1 148//1 
f 141//1 143//1 149//1 147//1 
f 143//1 144//1 150//1 149//1 
f 144//1 145//1 151//1 150//1 
f 145//1 146//1 152//1 151//1 
f 146//1 76//1 83//1 152//1 
f 47//1 189//1 193//1 194//1 52//1 
f 189//1 190//1 195//1 196//1 193//1 
f 190//1 191//1 197//1 198//1 195//1 
f 191//1 192//1 199//1 200//1 197//1 
f 52//1 194//1 201//1 61//1 
f 194//1 193//1 196//1 202//1 203//1 201//1 
f 196//1 195//1 204//1 202//1 
f 195//1 198//1 205//1 204//1 
f 198//1 197//1 200//1 206//1 207//1 205//1 
f 200//1 199//1 208//1 206//1 
f 61//1 201//1 209//1 70//1 
f 201//1 203//1 202//1 210//1 209//1 
f 202//1 204//1 211//1 210//1 
f 204//1 205//1 212//1 211//1 
f 205//1 207//1 206//1 213//1 212//1 
f 206//1 208//1 214//1 213//1 
f 70//1 209//1 215//1 77//1 
f 209//1 210//1 216//1 215//1 
f 210//1 211//1 217//1 216//1 
f 211//1 212//1 218//1 217//1 
f 212//1 213//1 219//1 218//1 
f 213//1 214//1 220//1 219//1 
f 122//1 127//1 250//1 251//1 247//1 
f 247//1 251//1 252//1 253//1 248//1 
f 248//1 253//1 254//1 255//1 249//1 
f 249//1 255//1 256//1 199//1 192//1 
f 127//1 134//1 257//1 250//1 
f 250//1 257//1 258//1 259//1 252//1 251//1 
f 252//1 259//1 260//1 253//1 
f 253//1 260//1 261//1 254//1 
f 254//1 261//1 262//1 263//1 256//1 255//1 
f 256//1 263//1 208//1 199//1 
f 134//1 142//1 264//1 257//1 
f 257//1 264//1 265//1 259//1 258//1 
f 259//1 265//1 266//1 260//1 
f 260//1 266//1 267//1 261//1 
f 261//1 267//1 268//1 263//1 262//1 
f 263//1 268//1 214//1 208//1 
f 142//1 148//1 269//1 264//1 
f 264//1 269//1 270//1 265//1 
f 265//1 270//1 271//1 266//1 
f 266//1 271//1 272//1 267//1 
f 267//1 272//1 273//1 268//1 
f 268//1 273//1 220//1 214//1 
